<svg xmlns="http://www.w3.org/2000/svg" width="24" height="24" viewBox="0 0 24 24">
  <g id="Group_341" data-name="Group 341" transform="translate(-723 -286)">
    <g id="Group_33" data-name="Group 33" transform="translate(-586.645 -766.882)">
      <g id="Group_31" data-name="Group 31" transform="translate(1317.035 1059.161)">
        <path id="Path_32" data-name="Path 32" d="M1742.163,1469.529h-8.024a1.576,1.576,0,0,1-1.574-1.574v-11.079a1.574,1.574,0,0,1,1.574-1.574h8.024a1.574,1.574,0,0,1,1.574,1.574v11.079A1.574,1.574,0,0,1,1742.163,1469.529Zm-8.024-13.431a.78.78,0,0,0-.779.778v11.079a.78.78,0,0,0,.779.779h8.024a.78.78,0,0,0,.779-.779v-11.079a.779.779,0,0,0-.779-.778Z" transform="translate(-1732.565 -1455.303)" fill="#114898"/>
        <path id="Path_32_-_Outline" data-name="Path 32 - Outline" d="M1742.163,1469.779h-8.024a1.826,1.826,0,0,1-1.824-1.824v-11.079a1.826,1.826,0,0,1,1.824-1.824h8.024a1.826,1.826,0,0,1,1.824,1.824v11.079A1.826,1.826,0,0,1,1742.163,1469.779Zm-8.024-14.226a1.325,1.325,0,0,0-1.324,1.324v11.079a1.325,1.325,0,0,0,1.324,1.324h8.024a1.325,1.325,0,0,0,1.324-1.324v-11.079a1.325,1.325,0,0,0-1.324-1.324Zm8.024,13.431h-8.024a1.03,1.03,0,0,1-1.029-1.029v-11.079a1.03,1.03,0,0,1,1.029-1.028h8.024a1.03,1.03,0,0,1,1.029,1.028v11.079A1.03,1.03,0,0,1,1742.163,1468.984Zm-8.024-12.636a.529.529,0,0,0-.529.528v11.079a.529.529,0,0,0,.529.529h8.024a.529.529,0,0,0,.529-.529v-11.079a.529.529,0,0,0-.529-.528Z" transform="translate(-1732.565 -1455.303)" fill="#114898"/>
      </g>
      <g id="Group_32" data-name="Group 32" transform="translate(1314.645 1056.882)">
        <path id="Path_33" data-name="Path 33" d="M1315.043,1068.835h0a.4.4,0,0,1-.4-.4v-9.283a2.276,2.276,0,0,1,2.273-2.273h6.161a.4.4,0,0,1,.4.4h0a.4.4,0,0,1-.4.4h-6.161a1.479,1.479,0,0,0-1.478,1.478v9.283A.4.4,0,0,1,1315.043,1068.835Z" transform="translate(-1314.645 -1056.882)" fill="#114898"/>
        <path id="Path_33_-_Outline" data-name="Path 33 - Outline" d="M1315.043,1069.085a.648.648,0,0,1-.648-.648v-9.283a2.526,2.526,0,0,1,2.523-2.523h6.161a.648.648,0,0,1,0,1.3h-6.161a1.229,1.229,0,0,0-1.228,1.228v9.283A.648.648,0,0,1,1315.043,1069.085Zm1.875-11.953a2.025,2.025,0,0,0-2.023,2.023v9.283a.148.148,0,1,0,.3,0v-9.283a1.73,1.73,0,0,1,1.728-1.728h6.161a.148.148,0,0,0,0-.3Z" transform="translate(-1314.645 -1056.882)" fill="#114898"/>
      </g>
    </g>
    <g id="Rectangle_37" data-name="Rectangle 37" transform="translate(723 286)" fill="none" stroke="#646a71" stroke-width="1" opacity="0">
      <rect width="24" height="24" stroke="none"/>
      <rect x="0.5" y="0.5" width="23" height="23" fill="none"/>
    </g>
  </g>
</svg>
