<svg xmlns="http://www.w3.org/2000/svg" width="135.49" height="135.49" viewBox="0 0 135.49 135.49">
  <g id="Group_329" data-name="Group 329" transform="translate(566.921 -595.734)" style="mix-blend-mode: normal;isolation: isolate">
    <g id="Group_26" data-name="Group 26" transform="translate(-555.238 607.418)">
      <g id="Group_25" data-name="Group 25">
        <path id="Path_6180" data-name="Path 6180" d="M-493.426,736.474c-.787,0-1.543-.022-2.312-.067a66.917,66.917,0,0,1-50.184-25.195.129.129,0,0,1-.022-.04,55.557,55.557,0,0,1-3.543-19.577V669.229a56.125,56.125,0,0,1,56.061-56.061,56.125,56.125,0,0,1,56.061,56.061V691.6a55.558,55.558,0,0,1-3.543,19.577.131.131,0,0,1-.022.04,66.922,66.922,0,0,1-50.187,25.2C-491.883,736.452-492.639,736.474-493.426,736.474Zm-52.255-25.424a66.631,66.631,0,0,0,49.956,25.068c.767.045,1.518.067,2.3.067s1.532-.022,2.3-.067a66.632,66.632,0,0,0,49.96-25.068,55.259,55.259,0,0,0,3.517-19.454V669.229a55.836,55.836,0,0,0-55.772-55.773A55.836,55.836,0,0,0-549.2,669.229V691.6A55.262,55.262,0,0,0-545.682,711.05Zm104.638.072h0Z" transform="translate(549.488 -613.168)" fill="#f7a088" stroke="#f7a088" stroke-width="1"/>
      </g>
    </g>
    <g id="Group_28" data-name="Group 28" transform="translate(-544.055 618.601)">
      <g id="Group_27" data-name="Group 27">
        <path id="Path_6181" data-name="Path 6181" d="M-487.677,742.224c-.787,0-1.543-.022-2.312-.067a44.624,44.624,0,0,1-30.16-13.856,44.668,44.668,0,0,1-12.406-30.955V674.979A44.929,44.929,0,0,1-487.677,630.1,44.929,44.929,0,0,1-442.8,674.979v22.367A44.667,44.667,0,0,1-455.2,728.3a44.626,44.626,0,0,1-30.161,13.856C-486.133,742.2-486.889,742.224-487.677,742.224Zm0-111.834a44.639,44.639,0,0,0-44.589,44.589v22.367a44.523,44.523,0,0,0,42.293,44.522c.764.045,1.515.067,2.3.067s1.532-.022,2.3-.067a44.523,44.523,0,0,0,42.293-44.522V674.979A44.639,44.639,0,0,0-487.677,630.39Z" transform="translate(532.555 -630.101)" fill="#f7a088" stroke="#f7a088" stroke-width="1"/>
      </g>
    </g>
    <g id="Group_30" data-name="Group 30" transform="translate(-532.871 629.784)">
      <g id="Group_29" data-name="Group 29">
        <path id="Path_6182" data-name="Path 6182" d="M-481.927,736.79a33.733,33.733,0,0,1-33.7-33.7V680.729a33.733,33.733,0,0,1,33.7-33.7,33.733,33.733,0,0,1,33.7,33.7V703.1A33.733,33.733,0,0,1-481.927,736.79Zm0-89.467a33.444,33.444,0,0,0-33.406,33.406V703.1A33.444,33.444,0,0,0-481.927,736.5,33.444,33.444,0,0,0-448.521,703.1V680.729A33.444,33.444,0,0,0-481.927,647.323Z" transform="translate(515.622 -647.034)" fill="#f7a088" stroke="#f7a088" stroke-width="1"/>
      </g>
    </g>
    <g id="Group_32" data-name="Group 32" transform="translate(-521.688 640.968)">
      <g id="Group_31" data-name="Group 31">
        <path id="Path_6183" data-name="Path 6183" d="M-476.177,731.357a22.537,22.537,0,0,1-22.512-22.512V686.479a22.537,22.537,0,0,1,22.512-22.512,22.537,22.537,0,0,1,22.511,22.512v22.367A22.537,22.537,0,0,1-476.177,731.357Zm0-67.1A22.248,22.248,0,0,0-498.4,686.479v22.367a22.248,22.248,0,0,0,22.222,22.223,22.247,22.247,0,0,0,22.222-22.223V686.479A22.247,22.247,0,0,0-476.177,664.256Z" transform="translate(498.689 -663.967)" fill="#f7a088" stroke="#f7a088" stroke-width="1"/>
      </g>
    </g>
    <g id="Group_34" data-name="Group 34" transform="translate(-566.421 596.234)">
      <g id="Group_33" data-name="Group 33">
        <path id="Path_6184" data-name="Path 6184" d="M-499.176,730.724c-.787,0-1.543-.022-2.312-.067a66.917,66.917,0,0,1-50.184-25.195,67.266,67.266,0,0,1-14.749-41.983c0-1.314.028-2.411.089-3.453a61.477,61.477,0,0,1,.7-6.769,66.212,66.212,0,0,1,10.714-27.368,63.015,63.015,0,0,1,5.951-7.562.183.183,0,0,1,.038-.064,62.392,62.392,0,0,1,4.546-4.546.172.172,0,0,1,.058-.033,62.985,62.985,0,0,1,7.563-5.951A66.228,66.228,0,0,1-509.4,597.019a61.66,61.66,0,0,1,6.769-.695c1.041-.061,2.138-.09,3.451-.09s2.411.029,3.453.09a61.692,61.692,0,0,1,6.77.695,66.229,66.229,0,0,1,27.368,10.714,63.073,63.073,0,0,1,7.561,5.951.19.19,0,0,1,.064.038,62.394,62.394,0,0,1,4.546,4.546.182.182,0,0,1,.034.059,63,63,0,0,1,5.951,7.563,66.233,66.233,0,0,1,10.714,27.369,61.557,61.557,0,0,1,.694,6.77c.061,1.037.09,2.135.09,3.451a67.27,67.27,0,0,1-14.749,41.984,66.923,66.923,0,0,1-50.187,25.194C-497.633,730.7-498.389,730.724-499.176,730.724Zm-49.515-112.3a.137.137,0,0,1-.033.059,62.612,62.612,0,0,0-5.958,7.565A65.935,65.935,0,0,0-565.351,653.3a61.282,61.282,0,0,0-.691,6.74c-.061,1.038-.09,2.13-.09,3.438a66.976,66.976,0,0,0,14.686,41.8,66.635,66.635,0,0,0,49.972,25.087c.767.045,1.518.067,2.3.067s1.532-.022,2.3-.067a66.638,66.638,0,0,0,49.974-25.086,66.976,66.976,0,0,0,14.686-41.8c0-1.31-.028-2.4-.09-3.436A61.314,61.314,0,0,0-433,653.3a65.955,65.955,0,0,0-10.668-27.252,62.817,62.817,0,0,0-5.958-7.565.141.141,0,0,1-.033-.059,62.374,62.374,0,0,0-4.463-4.463.143.143,0,0,1-.059-.033,62.614,62.614,0,0,0-7.565-5.958A65.94,65.94,0,0,0-489,597.3a61.343,61.343,0,0,0-6.74-.692c-1.038-.061-2.129-.089-3.438-.089s-2.4.028-3.436.089a61.292,61.292,0,0,0-6.74.692A65.935,65.935,0,0,0-536.6,607.973a62.684,62.684,0,0,0-7.565,5.958.144.144,0,0,1-.059.033A62.286,62.286,0,0,0-548.691,618.427Z" transform="translate(566.421 -596.234)" fill="#f7a088" stroke="#f7a088" stroke-width="1"/>
      </g>
    </g>
    <g id="Group_35" data-name="Group 35" transform="translate(-499.342 650.234)">
      <path id="Path_6185" data-name="Path 6185" d="M-464.689,726.638a.166.166,0,0,1-.165-.165V678.162a.165.165,0,0,1,.165-.165.166.166,0,0,1,.165.165v48.311A.166.166,0,0,1-464.689,726.638Z" transform="translate(464.854 -677.997)" fill="#f7a088" stroke="#f7a088" stroke-width="1"/>
    </g>
  </g>
</svg>
